<svg viewBox="0 0 96 96" xmlns="http://www.w3.org/2000/svg" xmlns:xlink="http://www.w3.org/1999/xlink" id="Icons_3dGlasses_M" overflow="hidden"><g id="Icons"><path d="M11.6219 55.3369 20.1776 58.8992C20.3523 58.9747 20.5404 59.0147 20.7307 59.0168 21.6653 59.0168 22.3569 57.9529 22.3597 56.3462L22.3707 50.1562C22.3741 48.2462 21.4026 46.2915 20.2007 45.7912L11.6451 42.2287C11.4704 42.1533 11.2824 42.1134 11.0921 42.1113 10.1575 42.1113 9.4658 43.1752 9.4629 44.7819L9.4519 50.9719C9.4487 52.8821 10.42 54.8364 11.6219 55.3369ZM11.4519 50.8774 16.0854 46.2437 17.9713 47.0288 11.9931 53.0078C11.638 52.3893 11.4514 51.6885 11.4517 50.9753ZM20.3703 50.1523 20.3703 50.2153 15.7119 54.8738 13.7657 54.0638 19.7817 48.0469C20.1682 48.6811 20.372 49.4096 20.3707 50.1523ZM20.3266 56.7949 17.7086 55.7049 20.3651 53.0484 20.36 56.3425C20.3606 56.4939 20.3496 56.6452 20.327 56.7949ZM11.4958 44.3328 14.0891 45.4128 11.4573 48.0446 11.4631 44.7858C11.4624 44.6342 11.4733 44.4827 11.4958 44.3328Z"/><path d="M36.7943 65.8181 45.35 69.38C45.5247 69.4555 45.7128 69.4955 45.9031 69.4976 46.8377 69.4976 47.5293 68.4334 47.5321 66.827L47.5432 60.637C47.5465 58.727 46.5751 56.7723 45.3732 56.2718L36.8176 52.71C36.6428 52.6345 36.4548 52.5945 36.2644 52.5923 35.3298 52.5923 34.6383 53.6563 34.6354 55.263L34.6244 61.453C34.621 63.3633 35.5925 65.3176 36.7943 65.8181ZM36.6354 55.2664C36.6347 55.115 36.6457 54.9637 36.6681 54.814L44.5937 58.114C45.2412 58.789 45.5842 59.6996 45.5431 60.634L45.532 66.824C45.5327 66.9754 45.5218 67.1267 45.4993 67.2764L37.5737 63.9764C36.9263 63.3013 36.5833 62.3908 36.6244 61.4564Z"/><path d="M90.8186 43.0925C88.5704 40.7142 85.0985 39.9487 82.0586 41.1611L53.4922 52.532C53.4577 52.5079 53.4217 52.4861 53.3843 52.4668L20.1357 38.6228 21.0898 35.0244 32.5464 30.2764C33.2357 29.99 34.0266 30.3167 34.313 31.006 34.3814 31.1706 34.4165 31.3471 34.4164 31.5254L34.4164 32.2089C34.4314 32.7911 34.0702 33.3169 33.5214 33.5118 32.1192 33.9467 31.1641 35.2448 31.1664 36.7129L31.1664 37.6834C31.1507 38.4121 31.3647 39.1272 31.778 39.7275 32.6709 40.9835 34.3034 41.4717 35.7392 40.9121L36.7079 40.5332C41.1058 38.8131 44 34.5735 44 29.8512L44 27.8418C44.0363 25.7123 43.2522 23.6505 41.81 22.0833 39.559 19.7115 36.0899 18.9509 33.0531 20.1633L3.633 32.0981C3.58196 32.1186 3.53273 32.1432 3.4858 32.1719 3.2078 32.3566 3.04051 32.6681 3.04 33.0019L3 55.4863C2.99933 55.8906 3.24214 56.2555 3.6153 56.411L5.9907 57.4 7.4517 60.34C7.55866 60.5558 7.7403 60.7255 7.9629 60.8176L20.75 66.1416C22.7749 66.9873 24.7329 66.1992 25.8594 64.0908L27.605 60.8232C27.686 60.6699 27.825 60.5156 27.958 60.501 28.2539 60.5215 28.8838 60.9922 29.3154 62.168L31.0464 66.8828C32.023 69.5428 33.6221 71.501 35.4331 72.2549L48.2197 77.5791C48.6201 77.7464 49.0827 77.6359 49.3643 77.3057L50.6621 75.7871 52.8643 75.999C52.8843 76.001 52.9031 75.9917 52.9232 75.9924 52.9493 75.9946 52.9743 76.0039 53.0005 76.0039 53.0817 75.9981 53.162 75.9825 53.2395 75.9575 53.2541 75.9531 53.2695 75.9536 53.2837 75.9487 53.3151 75.9443 53.3462 75.9383 53.377 75.9307L66.377 70.6446C66.6804 70.5212 66.9043 70.2571 66.9763 69.9375L70.1125 56.0156 81.5471 51.2764C82.2364 50.99 83.0273 51.3167 83.3137 52.006 83.3821 52.1706 83.4172 52.3471 83.4171 52.5254L83.4171 53.2089C83.4321 53.7911 83.0709 54.3169 82.5221 54.5118 81.1199 54.9467 80.1648 56.2448 80.1671 57.7129L80.1671 58.7383C80.1302 60.5837 81.5963 62.1096 83.4417 62.1465 83.8857 62.1554 84.327 62.0757 84.7399 61.9121L85.7086 61.5332C90.1062 59.8129 93.0001 55.5733 93 50.8512L93 48.8461C93.0366 46.7196 92.2558 44.6602 90.8186 43.0925ZM33.7986 22.0186C35.7172 21.2409 37.9026 21.5218 39.5621 22.7596 41.1285 23.9582 42.0331 25.8289 42 27.801L42 29.85C41.9999 33.7488 39.6107 37.2492 35.98 38.67L35.0117 39.0489C34.3153 39.3205 33.5306 38.9762 33.259 38.2798 33.1979 38.1231 33.1665 37.9564 33.1665 37.7882L33.1665 36.7422C33.1515 36.16 33.5127 35.6342 34.0615 35.4394 35.4637 35.0045 36.4188 33.7064 36.4165 32.2383L36.4165 31.6705C36.4366 30.7906 36.1271 29.935 35.5487 29.2716 34.5963 28.2235 33.0884 27.8863 31.7803 28.4287L19.8672 33.3662C19.5791 33.4855 19.3632 33.7325 19.2833 34.0339L18.2722 37.8469 6.6749 33.0182C6.6626 33.013 6.6626 33.0047 6.6749 32.9996ZM51.9619 73.9033 50.3359 73.7461C50.0112 73.7147 49.6916 73.8437 49.4796 74.0917L48.3159 75.4531 36.2012 70.4092C34.9412 69.8848 33.6855 68.2692 32.9238 66.1934L31.1924 61.4785C30.5518 59.7334 29.3652 58.5938 28.0962 58.5059 28.0425 58.502 27.9892 58.5001 27.9362 58.5 27.0311 58.5232 26.2181 59.0592 25.84 59.8818L24.0949 63.1484C23.7441 64.1573 22.6418 64.6909 21.6329 64.3401 21.5941 64.3266 21.5557 64.3118 21.5178 64.2959L9.0762 59.1152 7.6162 56.1772C7.50886 55.9611 7.32707 55.791 7.1043 55.6982L5.001 54.8223 5.0376 34.5169C5.03699 34.5118 5.04064 34.5072 5.04574 34.5066 5.0477 34.5063 5.04968 34.5067 5.0514 34.5077L51.9985 54.0557ZM91 50.85C90.9999 54.7488 88.6107 58.2492 84.98 59.67L84.0117 60.0489C83.3153 60.3205 82.5306 59.9762 82.259 59.2798 82.1979 59.1231 82.1665 58.9564 82.1665 58.7882L82.1665 57.7422C82.1515 57.16 82.5127 56.6342 83.0615 56.4394 84.4637 56.0045 85.4188 54.7064 85.4165 53.2383L85.4165 52.6722C85.4367 51.7932 85.1283 50.9383 84.5516 50.2747 83.5996 49.2241 82.0899 48.8854 80.7803 49.4287L68.8671 54.3662C68.5669 54.4906 68.3458 54.7532 68.2744 55.0703L65.1392 68.9883 54 73.5176 54 54.4824 82.7983 43.0186C84.7172 42.2407 86.9031 42.5219 88.5626 43.7602 90.1287 44.9589 91.0331 46.8295 91 48.8014Z"/></g></svg>